<svg xmlns="http://www.w3.org/2000/svg" width="900" height="900" viewBox="0 0 511.987 447.987">
  <g id="coffee-cup" transform="translate(0 -32.001)">
    <g id="Group_2" data-name="Group 2">
      <g id="Group_1" data-name="Group 1">
        <path id="Path_1" data-name="Path 1" d="M394.655,202.654H95.988a32.039,32.039,0,0,0-32,32v21.333a202.17,202.17,0,0,0,109.717,180.16,10.672,10.672,0,0,0,9.792-18.966,180.877,180.877,0,0,1-98.176-161.2V234.653a10.671,10.671,0,0,1,10.667-10.667H394.655a10.671,10.671,0,0,1,10.667,10.667v21.333a180.8,180.8,0,0,1-98.2,161.173,10.676,10.676,0,0,0,4.906,20.16,10.518,10.518,0,0,0,4.885-1.2A202.069,202.069,0,0,0,426.655,255.985V234.652A32.039,32.039,0,0,0,394.655,202.654Z" fill="#fff"/>
      </g>
    </g>
    <g id="Group_4" data-name="Group 4">
      <g id="Group_3" data-name="Group 3">
        <path id="Path_2" data-name="Path 2" d="M489.865,422.558a10.689,10.689,0,0,0-9.856-6.592H10.676a10.679,10.679,0,0,0-7.552,18.219l23.915,23.936a74.219,74.219,0,0,0,52.8,21.867H410.8a74.35,74.35,0,0,0,52.843-21.867l23.915-23.936A10.645,10.645,0,0,0,489.865,422.558Zm-41.322,20.48a53.03,53.03,0,0,1-37.717,15.616H79.839a53.03,53.03,0,0,1-37.717-15.616L36.4,437.321H454.26Z" fill="#fff"/>
      </g>
    </g>
    <g id="Group_6" data-name="Group 6">
      <g id="Group_5" data-name="Group 5">
        <path id="Path_3" data-name="Path 3" d="M491.359,253.022c-28.736-18.475-74.645,1.579-79.787,3.9a10.678,10.678,0,1,0,8.853,19.435c10.283-4.672,43.264-15.744,59.392-5.355,7.275,4.672,10.837,13.739,10.837,27.648,0,42.709-86.144,68.523-119.4,74.88l-7.552,1.493a10.66,10.66,0,0,0,2.048,21.12,9.9,9.9,0,0,0,2.069-.213l7.488-1.472c5.589-1.067,136.683-26.773,136.683-95.808C511.988,277.193,505.034,261.854,491.359,253.022Z" fill="#fff"/>
      </g>
    </g>
    <g id="Group_8" data-name="Group 8">
      <g id="Group_7" data-name="Group 7">
        <path id="Path_4" data-name="Path 4" d="M328.372,113.31c17.344-21.675,17.344-55.616,0-77.291a10.67,10.67,0,0,0-16.661,13.333c10.987,13.717,10.987,36.907-.021,50.667-17.365,21.675-17.365,55.616,0,77.291a10.67,10.67,0,0,0,16.661-13.333C317.343,150.259,317.343,127.07,328.372,113.31Z" fill="#fff"/>
      </g>
    </g>
    <g id="Group_10" data-name="Group 10">
      <g id="Group_9" data-name="Group 9">
        <path id="Path_5" data-name="Path 5" d="M264.287,113.31c17.365-21.675,17.365-55.616,0-77.291a10.67,10.67,0,1,0-16.661,13.333c11.008,13.717,11.008,36.907-.021,50.667-17.344,21.675-17.344,55.616,0,77.291a10.67,10.67,0,0,0,16.661-13.333C253.279,150.259,253.279,127.07,264.287,113.31Z" fill="#fff"/>
      </g>
    </g>
    <g id="Group_12" data-name="Group 12">
      <g id="Group_11" data-name="Group 11">
        <path id="Path_6" data-name="Path 6" d="M200.372,113.331c17.344-21.675,17.344-55.616,0-77.291a10.663,10.663,0,0,0-16.661,13.312c10.987,13.717,10.987,36.907-.021,50.667-17.365,21.675-17.365,55.616,0,77.291A10.663,10.663,0,1,0,200.351,164C189.343,150.259,189.343,127.091,200.372,113.331Z" fill="#fff"/>
      </g>
    </g>
  </g>
</svg>
