<svg xmlns="http://www.w3.org/2000/svg" xmlns:xlink="http://www.w3.org/1999/xlink" width="100" height="100" viewBox="0 0 100 100"><defs><clipPath id="b"><rect width="100" height="100"/></clipPath></defs><g id="a" clip-path="url(#b)"><path d="M3.018,54.882c7-2.686,12.619,5.709,19.772,5.837,5.531.1,19.745-12.014,27.411-3.125,0,0,17.961,12.016,28.941,6.215s18.072-9.785,18.072-9.785l-1.028,7.552-2.64,7.535A41.2,41.2,0,0,1,89.4,76.336c-.962,1.368-2.015,3.2-3.309,4.761a35.748,35.748,0,0,1-3.961,4.055l-5.658,4.526-6.834,3.772-9.951,3.112L50.2,97.691l-7.294-.657L32.062,93.913l-7.45-3.48L16.893,84.3l-5.671-6.611L6.507,69.4,3.678,60.719Z" fill="none"/><path d="M3.678,46.842c.787-.59-.394,1.45,0,0,.047-.173,2.651-3.483,8.679-6.185,3.817-1.713,9.013-5.092,16.489-4.811C41.618,36.324,55.9,50.4,59.692,53.584c6.629,7.968,37.362,7.135,37.362,7.135l-.355.963-3.154,7.429A41.2,41.2,0,0,1,89.4,76.336c-.962,1.368-2.015,3.2-3.309,4.761a35.748,35.748,0,0,1-3.961,4.055l-5.658,4.526-6.834,3.772-9.951,3.112L50.2,97.691l-7.294-.657L32.062,93.913l-7.45-3.48L16.893,84.3l-5.671-6.611L6.507,69.4,3.678,60.719Z" transform="translate(0 -7)" fill="#4a6e91"/><path d="M2.39,46.678c.956-3.506.637-6.518,1.287-7.156,2.5-.221,12.9-5.9,21.98,4.622,2.889,2.306,5.428,4.483,7.994,6.656,4.331,3.667,8.124,6.779,12.246,8.643,8.684,3.93,16.63,2.9,21.036,2.134,13.865-2.134,30.28-7.552,30.28-7.552l-1.028,7.552-2.64,7.535A41.2,41.2,0,0,1,89.4,76.336c-.962,1.368-2.015,3.2-3.309,4.761a35.748,35.748,0,0,1-3.961,4.055l-5.658,4.526-6.834,3.772-9.951,3.112L50.2,97.691l-7.294-.657L32.062,93.913l-7.45-3.48L16.893,84.3l-5.671-6.611L6.507,69.4,3.678,60.719Z" fill="#6f99c2"/><g transform="translate(2 2)" fill="none"><path d="M48,0A48,48,0,1,1,0,48,48,48,0,0,1,48,0Z" stroke="none"/><path d="M 48 1 C 41.65459823608398 1 35.49953460693359 2.242530822753906 29.70578765869141 4.693077087402344 C 24.10917663574219 7.060256958007813 19.08271026611328 10.44926452636719 14.76598358154297 14.76598358154297 C 10.44926452636719 19.08271026611328 7.060256958007813 24.10917663574219 4.693077087402344 29.70578765869141 C 2.242530822753906 35.49953460693359 1 41.65459823608398 1 48 C 1 54.34540176391602 2.242530822753906 60.50046539306641 4.693077087402344 66.29421234130859 C 7.060256958007813 71.89082336425781 10.44926452636719 76.91729736328125 14.76598358154297 81.23401641845703 C 19.08271026611328 85.55073547363281 24.10917663574219 88.93974304199219 29.70578765869141 91.30692291259766 C 35.49953460693359 93.75746917724609 41.65459823608398 95 48 95 C 54.34540176391602 95 60.50046539306641 93.75746917724609 66.29421234130859 91.30692291259766 C 71.89082336425781 88.93974304199219 76.91729736328125 85.55073547363281 81.23401641845703 81.23401641845703 C 85.55073547363281 76.91729736328125 88.93974304199219 71.89082336425781 91.30692291259766 66.29421234130859 C 93.75746917724609 60.50046539306641 95 54.34540176391602 95 48 C 95 41.65459823608398 93.75746917724609 35.49953460693359 91.30692291259766 29.70578765869141 C 88.93974304199219 24.10917663574219 85.55073547363281 19.08271026611328 81.23401641845703 14.76598358154297 C 76.91729736328125 10.44926452636719 71.89082336425781 7.060256958007813 66.29421234130859 4.693077087402344 C 60.50046539306641 2.242530822753906 54.34540176391602 1 48 1 M 48 0 C 74.50966644287109 0 96 21.49033355712891 96 48 C 96 74.50966644287109 74.50966644287109 96 48 96 C 21.49033355712891 96 0 74.50966644287109 0 48 C 0 21.49033355712891 21.49033355712891 0 48 0 Z" stroke="none" fill="#fff"/></g><text transform="translate(3 30)" fill="#fff" font-size="20" font-family="NotoSansCJKjp-Bold, Noto Sans CJK JP" font-weight="700"><tspan x="0" y="23">meta</tspan></text><text transform="translate(36 54)" fill="#fff" font-size="20" font-family="NotoSansCJKjp-Bold, Noto Sans CJK JP" font-weight="700"><tspan x="0" y="23">clean</tspan></text></g></svg>