<svg xmlns="http://www.w3.org/2000/svg" width="511.146" height="512" viewBox="0 0 511.146 512">
  <g id="_24-hours" data-name="24-hours" transform="translate(-0.427)">
    <g id="Group_2" data-name="Group 2">
      <g id="Group_1" data-name="Group 1">
        <path id="Path_1" data-name="Path 1" d="M364.493,405.186l-2.945,29.856,29.061,2.868A226.023,226.023,0,0,1,96.621,96.194,224.519,224.519,0,0,1,256.427,30a228.446,228.446,0,0,1,37.221,3.048l4.9-29.6A258.587,258.587,0,0,0,256.427,0,256,256,0,0,0,75.407,437.02a256.11,256.11,0,0,0,332.829,25.17l-2.622,26.568,29.854,2.946,7.772-78.746Z" fill="#fff"/>
      </g>
    </g>
    <g id="Group_4" data-name="Group 4">
      <g id="Group_3" data-name="Group 3">
        <path id="Path_2" data-name="Path 2" d="M339.58,13.811l-9.74,28.375A225.327,225.327,0,0,1,364,57.19l14.3-26.371A255.434,255.434,0,0,0,339.58,13.811Z" fill="#fff"/>
      </g>
    </g>
    <g id="Group_6" data-name="Group 6">
      <g id="Group_5" data-name="Group 5">
        <path id="Path_3" data-name="Path 3" d="M504.638,193.1l-29.086,7.35a226.144,226.144,0,0,1,6.11,36.809l29.9-2.453A256.222,256.222,0,0,0,504.638,193.1Z" fill="#fff"/>
      </g>
    </g>
    <g id="Group_8" data-name="Group 8">
      <g id="Group_7" data-name="Group 7">
        <path id="Path_4" data-name="Path 4" d="M413.674,53.972,395.232,77.634A227.954,227.954,0,0,1,422.7,102.928L444.762,82.6A258.311,258.311,0,0,0,413.674,53.972Z" fill="#fff"/>
      </g>
    </g>
    <g id="Group_10" data-name="Group 10">
      <g id="Group_9" data-name="Group 9">
        <path id="Path_5" data-name="Path 5" d="M470.745,115.937l-25.1,16.435a226.146,226.146,0,0,1,17.79,32.8L490.9,153.1A256.223,256.223,0,0,0,470.745,115.937Z" fill="#fff"/>
      </g>
    </g>
    <g id="Group_12" data-name="Group 12">
      <g id="Group_11" data-name="Group 11">
        <path id="Path_6" data-name="Path 6" d="M463.481,346.73A226.123,226.123,0,0,1,445.7,379.545l25.105,16.423a256.247,256.247,0,0,0,20.145-37.182Z" fill="#fff"/>
      </g>
    </g>
    <g id="Group_14" data-name="Group 14">
      <g id="Group_13" data-name="Group 13">
        <path id="Path_7" data-name="Path 7" d="M481.672,274.614a226.207,226.207,0,0,1-6.091,36.823l29.09,7.334a256.187,256.187,0,0,0,6.9-41.721Z" fill="#fff"/>
      </g>
    </g>
    <g id="Group_16" data-name="Group 16">
      <g id="Group_15" data-name="Group 15">
        <path id="Path_8" data-name="Path 8" d="M110.131,291.186a40.509,40.509,0,0,1,7.521-12.092l19.993-22.214A63.63,63.63,0,0,0,154,214.247a38.375,38.375,0,0,0-76.75,0v11.427h30V214.247a8.375,8.375,0,0,1,16.75,0,33.675,33.675,0,0,1-8.659,22.564L95.354,259.025a70.391,70.391,0,0,0-18.1,47.161v15h78.185v-30Z" fill="#fff"/>
      </g>
    </g>
    <g id="Group_18" data-name="Group 18">
      <g id="Group_17" data-name="Group 17">
        <path id="Path_9" data-name="Path 9" d="M241.959,255.865V175.872H205.965l-45.43,76.322v33.671h51.424v34.073h30V285.865h12.53v-30h-12.53Zm-30,0h-18.7l18.7-31.41Z" fill="#fff"/>
      </g>
    </g>
    <g id="Group_20" data-name="Group 20">
      <g id="Group_19" data-name="Group 19">
        <path id="Path_10" data-name="Path 10" d="M365.176,175.872v30h41.4L385.516,317.148l29.477,5.58,27.8-146.856Z" fill="#fff"/>
      </g>
    </g>
    <g id="Group_22" data-name="Group 22">
      <g id="Group_21" data-name="Group 21">
        <rect id="Rectangle_1" data-name="Rectangle 1" width="144.106" height="30.001" transform="translate(279.507 317.508) rotate(-80.631)" fill="#fff"/>
      </g>
    </g>
  </g>
</svg>