<svg xmlns="http://www.w3.org/2000/svg" xmlns:xlink="http://www.w3.org/1999/xlink" width="492" height="554" viewBox="0 0 492 554">
  <defs>
    <clipPath id="clip">
      <use xlink:href="#fill"/>
    </clipPath>
  </defs>
  <g id="Group_1" data-name="Group 1" transform="translate(94 40)">
    <g id="Ellipse_1" data-name="Ellipse 1" transform="translate(-76 -40)" fill="none" stroke="#fff" stroke-width="20">
      <ellipse cx="226.5" cy="200.5" rx="226.5" ry="200.5" stroke="none"/>
      <ellipse cx="226.5" cy="200.5" rx="216.5" ry="190.5" fill="none"/>
    </g>
    <g id="fork" transform="translate(61.259 69.585)">
      <path id="Path_6" data-name="Path 6" d="M170.438,76.762l10.6-.678.056,0a24.905,24.905,0,0,0,18.6-10.96l8.376-12.408a50.451,50.451,0,0,0,7.951-36.735,11.366,11.366,0,0,0-3.609-6.565,11.169,11.169,0,0,0-6.889-2.831,49.286,49.286,0,0,0-35.169,12.374l-11.2,9.884A25.3,25.3,0,0,0,150.6,48.794c0,.018,0,.038,0,.057l.6,10.7a15.144,15.144,0,0,1-4.148,11.285L59.585,161.565a12.906,12.906,0,0,0-3.4,9.525A15.327,15.327,0,0,0,61.1,181.727a15.016,15.016,0,0,0,9.887,3.7q.582,0,1.163-.047a12.673,12.673,0,0,0,8.971-4.569l78.71-98.536a14.876,14.876,0,0,1,10.605-5.518Zm-14.807,2.084-78.7,98.528a7.333,7.333,0,0,1-5.206,2.571,9.555,9.555,0,0,1-7.032-2.3,9.747,9.747,0,0,1-3.105-6.773,7.461,7.461,0,0,1,1.889-5.512l87.469-90.722a20.654,20.654,0,0,0,5.666-15.394L156,48.569a19.845,19.845,0,0,1,6.7-15.621l11.2-9.884a43.97,43.97,0,0,1,31.354-11.032,5.773,5.773,0,0,1,3.559,1.464,5.872,5.872,0,0,1,1.866,3.392A44.976,44.976,0,0,1,203.6,49.637l-8.376,12.409a19.536,19.536,0,0,1-14.557,8.593l-10.567.675a20.29,20.29,0,0,0-14.465,7.532Zm0,0" transform="translate(-38.243 -4.101)" fill="#fff" stroke="#fff" stroke-width="1"/>
      <path id="Path_7" data-name="Path 7" d="M356.113,335.943l-53.144-48.4a2.449,2.449,0,1,0-3.3,3.622L352.8,339.554a6.667,6.667,0,0,1,2.02,4.847,8.368,8.368,0,0,1-8.681,8.681,6.66,6.66,0,0,1-4.835-2.006l-47.356-51.991a2.449,2.449,0,1,0-3.622,3.3l47.367,52a11.518,11.518,0,0,0,8.349,3.593l.257,0A13.259,13.259,0,0,0,359.717,344.3a11.528,11.528,0,0,0-3.6-8.361Zm0,0" transform="translate(-182.157 -176.65)" fill="#fff" stroke="#fff" stroke-width="1"/>
      <path id="Path_8" data-name="Path 8" d="M29.556,64.994a22.682,22.682,0,0,0,14.832,6h.051l9.619.03a13.511,13.511,0,0,1,9.884,4.36l4.237,4.651a2.449,2.449,0,1,0,3.622-3.3l-4.244-4.658a18.431,18.431,0,0,0-13.483-5.954l-9.593-.03a17.8,17.8,0,0,1-11.5-4.6L5.109,28.355a.846.846,0,0,1,1.245-1.143L31.729,52.587a6.44,6.44,0,0,0,9.1,0l2.982-2.981h0L49.1,44.31a0,0,0,0,0,0,0h0l2.981-2.981a6.441,6.441,0,0,0,0-9.1L26.712,6.853a.846.846,0,0,1,1.143-1.245L60.995,33.486a17.789,17.789,0,0,1,4.6,11.494l.029,9.594a18.447,18.447,0,0,0,5.96,13.489l4.54,4.135a2.449,2.449,0,1,0,3.3-3.622L74.89,64.448a13.521,13.521,0,0,1-4.367-9.89l-.03-9.619c0-.017,0-.035,0-.052a22.682,22.682,0,0,0-6-14.832,2.447,2.447,0,0,0-.224-.216L31.008,1.859a5.744,5.744,0,0,0-7.759,8.457L48.624,35.693a1.536,1.536,0,0,1,0,2.17l-1.25,1.249L19.093,10.833A2.449,2.449,0,0,0,15.629,14.3L43.91,42.577l-1.833,1.831L13.8,16.129a2.449,2.449,0,1,0-3.463,3.463L38.613,47.872l-1.249,1.25a1.536,1.536,0,0,1-2.17,0L9.818,23.748a5.745,5.745,0,0,0-8.457,7.76L29.342,64.77a2.279,2.279,0,0,0,.214.224Zm0,0" transform="translate(0 0)" fill="#fff" stroke="#fff" stroke-width="1"/>
    </g>
    <g id="Rectangle_1" data-name="Rectangle 1" transform="translate(-94 361)" fill="none" stroke="#fff" stroke-width="20">
      <rect id="fill" width="492" height="18" stroke="none"/>
      <path d="M0,8h492M482,0v18M492,10h-492M10,18v-18" fill="none" clip-path="url(#clip)"/>
    </g>
    <g id="Rectangle_2" data-name="Rectangle 2" transform="translate(-88 379)" fill="none" stroke="#fff" stroke-width="20">
      <rect width="80" height="135" rx="20" stroke="none"/>
      <rect x="10" y="10" width="60" height="115" rx="10" fill="none"/>
    </g>
    <g id="Rectangle_4" data-name="Rectangle 4" transform="translate(223 379)" fill="none" stroke="#fff" stroke-width="20">
      <rect width="80" height="135" rx="20" stroke="none"/>
      <rect x="10" y="10" width="60" height="115" rx="10" fill="none"/>
    </g>
    <g id="Rectangle_3" data-name="Rectangle 3" transform="translate(2 379)" fill="none" stroke="#fff" stroke-width="20">
      <rect width="80" height="135" rx="20" stroke="none"/>
      <rect x="10" y="10" width="60" height="115" rx="10" fill="none"/>
    </g>
    <g id="Rectangle_5" data-name="Rectangle 5" transform="translate(313 379)" fill="none" stroke="#fff" stroke-width="20">
      <rect width="80" height="135" rx="20" stroke="none"/>
      <rect x="10" y="10" width="60" height="115" rx="10" fill="none"/>
    </g>
  </g>
</svg>
