<svg xmlns="http://www.w3.org/2000/svg" width="376" height="422" viewBox="0 0 376.567 422.442">
  <path id="heating" d="M364.468,9.932H12.1C5.416,9.932,0,16.575,0,24.77V304.4c0,8.194,5.416,14.838,12.1,14.838H87.615c-9.587,35.088-14.774,74.915,17.332,109.451a10.868,10.868,0,0,0,7.975,3.684,11.25,11.25,0,0,0,9.1-5.053c4.408-6.161,3.908-15.536-1.115-20.939-22.69-24.405-18.669-49.766-7.628-87.141h70.175c-9.589,35.09-14.774,74.915,17.332,109.451a10.868,10.868,0,0,0,7.975,3.684,11.25,11.25,0,0,0,9.1-5.053c4.408-6.161,3.908-15.536-1.115-20.939-22.692-24.405-18.669-49.766-7.628-87.141H279.3c-9.589,35.09-14.774,74.915,17.333,109.451a10.862,10.862,0,0,0,7.974,3.684,11.255,11.255,0,0,0,9.1-5.053c4.406-6.161,3.906-15.536-1.118-20.939-22.692-24.405-18.669-49.766-7.628-87.141h59.5c6.685,0,12.1-6.643,12.1-14.838V24.77C376.569,16.575,371.151,9.932,364.468,9.932Zm-12.1,279.628H313.773c8.188-29.958,13.161-63.371-5.542-93.992l13.232-13.615a11.079,11.079,0,0,0,2.851-8.458,10.284,10.284,0,0,0-4.029-7.706l-73.985-51.9a6.91,6.91,0,0,0-9.192,1.009,11.392,11.392,0,0,0-2.406,10.925l28.839,98.35a8.965,8.965,0,0,0,5.487,6.2,6.69,6.69,0,0,0,2.1.342,7.234,7.234,0,0,0,5.186-2.315l13.334-13.718c11.993,20.874,7.669,43.692-1.544,74.877H217.929c8.19-29.958,13.163-63.371-5.541-93.994l13.23-13.613a11.079,11.079,0,0,0,2.851-8.458,10.284,10.284,0,0,0-4.029-7.706l-73.983-51.9a6.91,6.91,0,0,0-9.192,1.009,11.389,11.389,0,0,0-2.406,10.923l28.837,98.35a8.972,8.972,0,0,0,5.487,6.2,6.69,6.69,0,0,0,2.1.342,7.231,7.231,0,0,0,5.186-2.315l13.335-13.718c11.993,20.872,7.669,43.692-1.546,74.877H122.087c8.188-29.958,13.161-63.371-5.542-93.994l13.23-13.613a11.079,11.079,0,0,0,2.851-8.458,10.284,10.284,0,0,0-4.029-7.706l-73.98-51.9a6.91,6.91,0,0,0-9.192,1.009,11.389,11.389,0,0,0-2.406,10.923l28.837,98.35a8.972,8.972,0,0,0,5.487,6.2,6.69,6.69,0,0,0,2.1.342,7.232,7.232,0,0,0,5.186-2.315l13.334-13.718c11.993,20.874,7.669,43.692-1.544,74.877H24.2V39.607H352.367Z" transform="translate(0 -9.932)" fill="#fff"/>
</svg>
