<svg xmlns="http://www.w3.org/2000/svg" width="401.781" height="513.032" viewBox="0 0 401.781 513.032">
  <path id="hot-drink" d="M421.133,73.282H419.7l.454-4.9c.01-.107.019-.214.026-.321,1.412-19.847-5-39.485-17.157-52.532C393.688,5.515,381.613,0,369.016,0H369L139.85.092C127.25.1,115.169,5.62,105.832,15.643,93.675,28.695,87.254,48.333,88.656,68.176c.008.107.017.214.026.321l.452,4.9a36.314,36.314,0,0,0-33.509,36.157v22.233A36.314,36.314,0,0,0,91.9,168.061h5.97L128.44,499.41a15,15,0,0,0,14.937,13.622h.007l221.879-.1a15,15,0,0,0,14.929-13.615l30.716-331.259h10.225a36.314,36.314,0,0,0,36.273-36.273V109.556a36.314,36.314,0,0,0-36.273-36.274ZM127.784,36.09c2.548-2.735,6.712-6,12.077-6L369.011,30h.005c5.357,0,9.513,3.252,12.056,5.981,6.554,7.034,9.985,18.165,9.192,29.8l-.7,7.5H119.252l-.68-7.371c-.787-11.639,2.652-22.777,9.212-29.821Zm234.3,333.644H146.6L134.689,240.6H374.054ZM157.057,483.026l-7.685-83.292H359.3l-7.716,83.208ZM376.836,210.6H131.921L128,168.062H380.78Zm50.57-78.812a6.28,6.28,0,0,1-6.273,6.273H91.9a6.28,6.28,0,0,1-6.273-6.273V109.556a6.28,6.28,0,0,1,6.273-6.273H421.132a6.28,6.28,0,0,1,6.273,6.273v22.233Z" transform="translate(-55.625 0)" fill="#fff"/>
</svg>
