<svg xmlns="http://www.w3.org/2000/svg" width="39" height="39" viewBox="0 0 39 39">
  <path id="instagram" d="M19.5,3.515c5.206,0,5.824.02,7.881.114,5.285.241,7.753,2.748,7.993,7.993.094,2.056.112,2.673.112,7.88s-.02,5.824-.112,7.88c-.242,5.241-2.7,7.753-7.993,7.993-2.057.094-2.671.114-7.881.114s-5.824-.019-7.88-.114c-5.3-.242-7.753-2.761-7.993-7.995-.094-2.056-.114-2.672-.114-7.88s.021-5.822.114-7.88c.242-5.244,2.7-7.753,7.993-7.993,2.057-.093,2.673-.112,7.88-.112ZM19.5,0c-5.3,0-5.959.023-8.039.117C4.379.442.444,4.371.119,11.46.023,13.541,0,14.2,0,19.5s.023,5.96.117,8.04C.442,34.622,4.371,38.558,11.46,38.883c2.082.094,2.745.117,8.04.117s5.96-.023,8.04-.117c7.075-.325,11.021-4.254,11.341-11.342.1-2.08.119-2.745.119-8.04s-.023-5.959-.117-8.039C38.564,4.386,34.63.444,27.542.119,25.46.023,24.8,0,19.5,0Zm0,9.487A10.014,10.014,0,1,0,29.513,19.5,10.014,10.014,0,0,0,19.5,9.487ZM19.5,26A6.5,6.5,0,1,1,26,19.5,6.5,6.5,0,0,1,19.5,26ZM29.91,6.752a2.34,2.34,0,1,0,2.338,2.34A2.341,2.341,0,0,0,29.91,6.752Z"/>
</svg>